<svg width="233" height="102" viewBox="0 0 233 102" fill="none" xmlns="http://www.w3.org/2000/svg">
<path d="M132.214 27.818C132.214 27.818 132.369 27.9725 132.524 27.9725C132.678 27.9725 132.988 28.1271 133.143 28.2816C134.536 27.6634 135.775 27.1998 136.859 26.8907C137.942 26.5816 139.026 26.2725 140.11 26.118C140.574 25.9634 141.039 25.9634 141.503 25.9634C141.967 25.9634 142.432 25.9634 143.051 25.9634C145.528 25.9634 147.541 26.4271 149.089 27.3544C150.637 28.2816 151.411 29.6725 151.411 31.218C151.411 32.7635 150.792 33.9998 149.554 34.9271C148.315 36.0089 146.767 36.4725 145.064 36.4725C143.98 36.4725 142.587 36.318 141.193 35.8544C139.8 35.3907 138.097 34.618 135.93 33.6907C134.536 34.7725 133.298 36.1635 132.524 37.7089C131.75 39.2544 131.285 40.7998 131.13 42.3453V42.4998V42.6544C131.13 44.0453 131.44 45.1271 132.214 46.0544C132.988 46.8271 133.917 47.2907 135.156 47.2907C136.239 47.2907 137.013 46.9816 137.787 46.3635C138.562 45.7453 138.871 44.9725 138.871 44.1998C138.871 43.5816 138.716 43.118 138.252 42.8089C137.787 42.4998 137.323 42.1907 136.704 42.1907C136.549 42.1907 136.549 42.1907 136.549 42.1907H136.394H136.239H136.084C135.93 42.1907 135.775 42.1907 135.62 42.3453C135.465 42.3453 135.465 42.3453 135.31 42.3453C135.001 42.3453 134.846 42.1907 134.536 42.0362C134.227 41.8816 134.227 41.5725 134.227 41.2635C134.227 41.1089 134.227 41.1089 134.227 40.9544C134.227 40.7998 134.381 40.6453 134.381 40.4907C134.691 39.8725 135.465 39.0998 136.549 38.4816C137.633 37.8635 138.871 37.3998 140.11 37.2453C140.419 37.2453 140.574 37.2453 140.884 37.0907C141.193 36.9362 141.348 37.0907 141.658 37.0907C143.67 37.0907 145.219 37.7089 146.457 38.7907C147.696 40.0271 148.315 41.418 148.315 43.2725C148.315 46.6725 146.922 49.7634 144.135 52.2362C141.348 54.7089 137.942 55.9453 134.072 55.9453C131.904 55.9453 129.892 55.6362 128.344 54.8635C126.795 54.0907 125.402 53.0089 124.318 51.618C123.544 50.5362 122.925 49.4544 122.615 48.218C122.151 46.9816 121.996 45.7453 121.996 44.3544C121.996 42.0362 122.615 39.5635 123.854 37.2453C125.092 34.9271 126.795 32.7634 129.118 30.5998C128.498 30.4453 127.879 30.2907 127.569 30.2907C127.105 30.1362 126.641 30.1362 126.176 30.1362C126.021 30.1362 125.866 30.1362 125.712 30.1362C125.557 30.1362 125.402 30.1362 125.247 30.1362C124.009 30.1362 123.08 30.2907 122.461 30.7544C121.686 31.218 121.377 31.6816 121.377 32.4544C121.377 32.4544 121.377 32.4544 121.377 32.6089C121.377 32.7635 121.377 32.6089 121.377 32.7635C121.377 33.0725 121.532 33.2271 121.686 33.3816C121.841 33.5362 121.996 33.6907 122.306 33.6907L123.854 33.5362C123.854 33.5362 123.854 33.5362 124.009 33.5362C124.163 33.5362 124.318 33.6907 124.473 33.8453C124.628 33.9998 124.628 34.1544 124.628 34.4634C124.628 35.2362 124.009 36.0089 122.615 36.6271C121.222 37.2453 119.829 37.5544 118.28 37.7089C116.268 37.7089 114.72 37.0907 113.481 36.0089C112.243 34.7725 111.623 33.3816 111.623 31.5271C111.623 29.2089 112.552 27.3544 114.41 25.8089C116.268 24.2635 118.435 23.4907 121.067 23.4907C121.377 23.4907 121.841 23.4907 122.151 23.4907C122.461 23.4907 122.925 23.4907 123.235 23.6453C124.009 23.7998 124.628 23.9544 125.402 24.2634C126.176 24.5725 127.105 24.8816 128.034 25.3453C128.189 25.4998 128.344 25.4998 128.344 25.4998C128.344 25.4998 128.498 25.4998 128.498 25.6544C128.653 25.6544 128.808 25.8089 128.963 25.8089C129.118 25.9635 129.737 26.2725 130.511 26.5816L131.75 27.1998L132.214 27.818ZM142.122 31.9907C142.742 32.1453 143.206 32.2998 143.67 32.2998H143.825C143.825 32.2998 143.825 32.2998 143.98 32.2998C144.445 32.2998 144.754 32.1453 145.064 31.9907C145.373 31.8362 145.528 31.5271 145.528 31.218C145.528 30.9089 145.373 30.5998 145.064 30.2907C144.754 30.1362 144.29 29.9816 143.825 29.9816C143.67 29.9816 143.361 29.9816 143.206 29.9816C143.051 29.9816 142.742 29.9816 142.587 29.9816C142.277 29.9816 141.813 30.1362 141.348 30.2907C140.884 30.4453 140.264 30.5998 139.645 30.9089C140.574 31.5271 141.503 31.8362 142.122 31.9907Z" fill="#7B2CBF"/>
<path d="M167.357 45.5906C167.203 45.8997 167.203 46.2088 167.203 46.5179C167.203 46.827 167.203 46.9815 167.203 47.136C167.203 47.4451 167.357 47.5997 167.512 47.9088C167.667 48.2179 167.977 48.2179 168.441 48.2179C168.596 48.2179 168.596 48.2179 168.751 48.2179C168.906 48.2179 168.906 48.2179 169.06 48.2179H169.215H169.37C169.525 48.0633 169.835 48.0633 169.989 48.0633C170.144 48.0633 170.299 48.0633 170.454 48.0633C170.609 48.0633 170.763 48.0633 170.918 48.2179C171.073 48.3724 171.073 48.527 171.073 48.6815C171.073 48.836 171.073 49.1451 170.918 49.4542C170.763 49.7633 170.609 49.9179 170.299 50.227C170.144 50.3815 170.144 50.3815 170.144 50.3815L169.989 50.536C169.525 50.9997 168.906 51.4633 168.286 51.7724C167.667 52.0815 167.048 52.3906 166.429 52.5451C166.119 52.6997 165.809 52.6997 165.345 52.6997C165.035 52.6997 164.726 52.8542 164.261 52.8542C163.332 52.8542 162.403 52.5451 161.784 51.927C161.165 51.3088 160.855 50.536 160.855 49.6088C160.855 49.4542 160.855 49.2997 160.855 49.1451C160.855 48.9906 160.855 48.836 160.855 48.6815C160.391 49.2997 159.926 49.7633 159.771 50.0724C159.617 50.3815 159.307 50.6906 158.997 50.8451C158.997 50.8451 158.997 50.8451 158.843 50.9997C158.843 50.9997 158.843 50.9997 158.688 51.1542C158.688 51.3088 158.533 51.3088 158.533 51.3088L158.378 51.4633C158.068 51.7724 157.759 52.0815 157.449 52.236C157.14 52.3906 156.675 52.6997 156.365 52.6997C156.056 52.8542 155.901 52.8542 155.591 52.8542C155.282 52.8542 155.127 53.0088 154.817 53.0088C153.579 53.0088 152.65 52.5451 151.876 51.4633C151.102 50.536 150.637 49.1451 150.637 47.5997C150.637 44.8179 151.566 42.3451 153.424 40.027C155.282 37.7088 157.449 36.627 159.617 36.627C160.391 36.627 161.165 36.7815 161.784 37.0906C162.403 37.3997 163.023 37.8633 163.642 38.4815C164.416 38.0179 165.035 37.5542 165.345 37.3997C165.809 37.2451 166.119 36.936 166.583 36.936C166.738 36.936 166.893 36.936 166.893 36.936C167.048 36.936 167.203 36.936 167.357 36.936C167.977 36.936 168.286 37.0906 168.596 37.3997C168.906 37.7088 169.06 38.0179 169.06 38.4815C169.06 38.636 169.06 38.636 169.06 38.7906C169.06 38.9451 169.06 39.0997 168.906 39.2542L167.357 45.5906ZM158.843 41.4179C158.378 42.036 158.068 42.6542 158.068 43.2724C158.068 43.736 158.223 44.0451 158.378 44.3542C158.688 44.6633 158.997 44.8179 159.462 44.8179C160.081 44.8179 160.546 44.5088 161.01 43.8906C161.474 43.2724 161.629 42.6542 161.784 42.036C161.784 41.727 161.629 41.4179 161.474 41.1088C161.32 40.9542 161.01 40.7997 160.546 40.7997C159.926 40.6451 159.462 40.9542 158.843 41.4179Z" fill="#7B2CBF"/>
<path d="M171.073 53.1636L173.705 41.4181C173.705 41.109 173.86 40.7999 173.86 40.4908C173.86 40.1818 173.86 40.0272 173.86 39.8727C173.86 39.5636 173.86 39.2545 173.705 39.0999C173.55 38.9454 173.395 38.6363 172.931 38.4818C174.015 37.709 174.944 37.0908 175.872 36.7818C176.801 36.4727 177.575 36.1636 178.504 36.1636C179.278 36.1636 179.898 36.3181 180.362 36.7818C180.827 37.0908 180.981 37.709 180.981 38.4818C181.91 37.709 182.839 37.0908 183.768 36.7818C184.697 36.4727 185.626 36.1636 186.555 36.1636C187.639 36.1636 188.567 36.4727 189.187 37.0908C189.806 37.709 190.27 38.4818 190.27 39.5636C190.27 39.7181 190.27 39.8727 190.27 40.0272C190.27 40.1818 190.27 40.3363 190.27 40.4908V40.6454V40.7999L189.032 45.8999C189.032 46.209 188.877 46.3636 188.877 46.5181C188.877 46.6727 188.877 46.8272 188.877 46.9818C188.877 47.2908 189.032 47.5999 189.187 47.7545C189.342 47.909 189.806 48.0636 190.116 48.0636C190.27 48.0636 190.425 48.0636 190.58 48.0636C190.735 48.0636 190.89 48.0636 190.89 47.909C191.199 47.7545 191.354 47.7545 191.509 47.7545C191.664 47.7545 191.819 47.5999 191.973 47.5999C192.128 47.5999 192.283 47.5999 192.438 47.7545C192.593 47.909 192.593 48.0636 192.593 48.2181C192.593 48.5272 192.438 48.9908 191.973 49.4545C191.664 49.9181 191.045 50.3818 190.425 50.8454C189.806 51.309 189.187 51.6181 188.413 51.7727C187.639 52.0818 187.019 52.2363 186.245 52.2363C186.09 52.2363 186.09 52.2363 185.936 52.2363C185.781 52.2363 185.626 52.2363 185.626 52.2363C184.387 52.2363 183.459 51.9272 182.839 51.309C182.22 50.6908 181.756 49.9181 181.756 48.8363C181.756 48.6818 181.756 48.6818 181.756 48.5272C181.756 48.3727 181.756 48.3727 181.756 48.2181C181.756 48.2181 181.756 48.2181 181.756 48.0636V47.909L182.684 43.5818C182.684 43.5818 182.684 43.5818 182.684 43.4272C182.684 43.2727 182.684 43.4272 182.684 43.2727C182.684 43.1181 182.684 42.9636 182.684 42.809C182.684 42.6545 182.684 42.6545 182.684 42.4999C182.684 42.1908 182.53 41.8818 182.375 41.7272C182.22 41.5727 181.91 41.4181 181.601 41.4181C181.136 41.4181 180.672 41.5727 180.207 42.0363C179.898 42.4999 179.588 43.1181 179.278 43.8908L178.195 48.8363C178.04 49.609 177.575 50.3818 177.111 50.8454C176.647 51.309 176.027 51.6181 175.253 51.6181H173.55C173.086 51.6181 172.621 51.6181 172.312 51.7727C172.002 51.7727 171.692 51.9272 171.383 52.2363C171.228 52.2363 171.228 52.3909 171.073 52.3909C171.228 53.009 171.228 53.009 171.073 53.1636Z" fill="#7B2CBF"/>
<path d="M206.836 31.3725C206.836 31.2179 206.836 31.2179 206.836 31.0634C206.836 30.9088 206.836 30.9088 206.836 30.9088C206.836 30.7543 206.836 30.5997 206.836 30.5997C206.836 30.5997 206.836 30.4452 206.836 30.2906C206.836 30.1361 206.836 29.827 206.836 29.6725C206.836 29.5179 206.681 29.3634 206.681 29.2088C206.526 29.0543 206.526 29.0543 206.371 28.8997C206.217 28.7452 206.062 28.7452 205.907 28.5906C206.836 27.9725 207.61 27.5088 208.229 27.0452C208.849 26.7361 209.468 26.427 210.087 26.427C210.242 26.427 210.552 26.2725 210.706 26.2725C210.861 26.2725 211.171 26.2725 211.326 26.2725C212.1 26.2725 212.719 26.427 213.183 26.8906C213.648 27.1997 213.803 27.8179 213.803 28.5906C213.803 28.7452 213.803 28.7452 213.803 28.7452V28.8997V29.0543V29.2088L210.242 45.5906C210.242 45.5906 210.242 45.5906 210.242 45.7452V45.8997C210.242 46.0543 210.242 46.2088 210.242 46.3634C210.242 46.5179 210.242 46.6725 210.242 46.827C210.242 47.1361 210.397 47.4452 210.552 47.7543C210.706 48.0634 211.016 48.0634 211.326 48.0634C211.48 48.0634 211.48 48.0634 211.635 48.0634H211.79H211.945H212.1C212.409 47.9088 212.564 47.9088 212.719 47.9088C212.874 47.9088 213.029 47.7543 213.183 47.7543C213.338 47.7543 213.493 47.7543 213.648 47.9088C213.803 48.0634 213.803 48.2179 213.803 48.3725C213.803 48.8361 213.648 49.1452 213.338 49.6088C213.029 50.0725 212.409 50.5361 211.79 50.9997C211.48 51.3088 211.016 51.4634 210.706 51.6179C210.242 51.7725 209.932 51.927 209.468 52.0816C209.003 52.2361 208.694 52.2361 208.229 52.3906C207.765 52.5452 207.455 52.5452 206.991 52.5452C205.907 52.5452 205.133 52.2361 204.514 51.6179C203.894 50.9997 203.585 50.227 203.585 49.2997V49.1452V48.9906C203.585 48.8361 203.585 48.8361 203.585 48.6816C203.585 48.527 203.585 48.527 203.585 48.3725C202.811 49.2997 202.191 50.0725 201.572 50.6906C200.953 51.3088 200.334 51.7725 199.714 52.0816C199.405 52.2361 198.94 52.3906 198.631 52.3906C198.321 52.5452 197.856 52.5452 197.547 52.5452C196.308 52.5452 195.225 52.0815 194.605 51.1543C193.831 50.227 193.522 48.8361 193.522 47.2906C193.522 44.5088 194.451 41.8816 196.308 39.7179C198.166 37.5543 200.179 36.4725 202.501 36.4725C203.12 36.4725 203.74 36.4725 204.204 36.627C204.668 36.7816 205.133 36.9361 205.443 37.2452C205.443 37.2452 205.597 37.2452 205.597 37.3997C205.597 37.3997 205.752 37.3997 205.752 37.5543L206.836 31.3725ZM201.572 41.4179C201.108 42.0361 200.798 42.8088 200.798 43.5816C200.798 44.0452 200.953 44.3543 201.262 44.6634C201.572 44.9725 201.882 45.127 202.191 45.127C202.811 45.127 203.275 44.8179 203.74 44.1997C204.204 43.5816 204.514 42.9634 204.514 42.3452C204.514 42.3452 204.514 42.3452 204.514 42.1906C204.514 42.1906 204.514 42.1906 204.514 42.0361C204.514 41.5725 204.359 41.2634 204.204 40.9543C203.894 40.6452 203.74 40.4906 203.275 40.4906C202.656 40.4906 202.037 40.7997 201.572 41.4179Z" fill="#7B2CBF"/>
<path d="M230.523 50.3815C229.904 53.4724 228.51 55.9452 226.343 57.7997C224.175 59.6542 221.698 60.5815 218.912 60.5815C217.209 60.5815 215.815 60.1179 214.886 59.3452C213.803 58.5724 213.338 57.4906 213.338 56.2542C213.338 55.4815 213.493 54.8633 213.803 54.3997C214.112 53.9361 214.577 53.3179 215.196 52.8542C215.351 52.6997 215.506 52.6997 215.661 52.5452C215.815 52.3906 215.97 52.3906 216.125 52.2361C216.28 53.0088 216.744 53.627 217.209 54.0906C217.673 54.5542 218.447 54.7088 219.221 54.7088C220.305 54.7088 221.234 54.2452 222.163 53.4724C223.092 52.6997 223.711 51.6179 224.021 50.227C223.092 50.8452 222.318 51.3088 221.698 51.6179C221.079 51.927 220.305 52.0815 219.686 52.2361C219.531 52.2361 219.376 52.2361 219.221 52.2361C219.067 52.2361 218.912 52.2361 218.757 52.2361C217.673 52.2361 216.744 51.927 215.97 51.3088C215.196 50.6906 214.886 49.7633 214.886 48.6815C214.886 48.527 214.886 48.3724 214.886 48.2179C214.886 48.0633 214.886 47.7542 215.041 47.5997C215.041 47.4452 215.041 47.4452 215.041 47.2906C215.041 47.1361 215.041 47.1361 215.041 46.9815L216.28 40.9542V40.7997V40.6452C216.28 40.4906 216.28 40.4906 216.28 40.3361C216.28 40.1815 216.28 40.1815 216.28 40.027C216.28 39.8724 216.28 39.7179 216.28 39.5633C216.28 39.4088 216.28 39.2542 216.125 39.0997C216.125 38.9452 215.97 38.9452 215.815 38.7906C215.661 38.6361 215.506 38.4815 215.351 38.327C216.28 37.7088 217.054 37.0906 217.828 36.7815C218.602 36.4724 219.221 36.1633 219.841 36.0088C219.995 36.0088 220.15 36.0088 220.46 36.0088C220.769 36.0088 220.769 36.0088 221.079 36.0088C221.698 36.0088 222.318 36.1633 222.782 36.627C223.247 36.9361 223.401 37.5542 223.401 38.1724C223.401 38.327 223.401 38.4815 223.401 38.6361C223.401 38.7906 223.401 38.9452 223.247 39.2542L222.163 44.5088C222.163 44.6633 222.008 44.8179 222.008 44.9724C222.008 45.127 222.008 45.2815 222.008 45.4361C222.008 45.7452 222.008 46.0542 222.318 46.2088C222.627 46.3633 222.782 46.5179 223.092 46.5179C223.711 46.5179 224.021 46.3633 224.485 45.8997C224.795 45.5906 225.104 44.9724 225.259 44.0452L226.033 41.1088V40.9542V40.7997C226.033 40.6452 226.033 40.4906 226.033 40.3361C226.033 40.1815 226.033 40.027 226.033 40.027C226.033 39.7179 226.033 39.5633 225.878 39.4088C225.878 39.2542 225.724 39.0997 225.569 38.9452L225.414 38.7906L225.259 38.6361C226.188 37.8633 227.117 37.2452 228.046 36.9361C228.975 36.627 229.749 36.3179 230.523 36.3179C231.297 36.3179 231.762 36.4724 232.226 36.7815C232.69 37.0906 232.845 37.5542 233 38.1724C233 38.327 233 38.4815 233 38.6361C233 38.7906 233 38.9452 232.845 39.0997L230.523 50.3815Z" fill="#7B2CBF"/>
<path d="M138.252 61.1998C139.645 60.7361 141.193 60.5816 142.587 60.5816C144.909 60.5816 146.922 61.0452 148.47 62.127C150.018 63.2088 150.792 64.4452 150.792 65.9907C150.792 67.3816 150.173 68.6179 148.934 69.3907C147.696 70.3179 145.993 70.627 143.98 70.627C143.67 70.627 143.361 70.627 143.051 70.627C142.742 70.627 142.432 70.627 142.277 70.627C141.658 70.4725 140.884 70.3179 140.11 70.0088C139.336 69.6998 138.252 69.2361 136.859 68.6179C136.859 68.7725 136.859 68.927 136.859 68.927C136.859 69.0816 136.859 69.0816 136.859 69.2361C136.859 69.5452 137.013 70.0088 137.323 70.4725C137.633 70.9361 138.097 71.2452 138.562 71.7088H138.716C138.716 71.7088 138.871 71.8634 139.336 72.0179C139.645 72.1725 140.729 72.7907 142.587 73.8725C144.135 74.7998 145.219 75.8816 145.993 76.9634C146.767 78.0452 147.076 79.2816 147.076 80.827C147.076 84.0725 145.683 86.6998 142.896 88.5543C140.11 90.5634 136.549 91.4907 132.059 91.4907C128.189 91.4907 125.092 90.7179 122.77 89.0179C120.448 87.3179 119.209 85.6179 119.209 82.9907C119.209 80.827 120.138 78.9725 121.841 77.427C123.544 75.8816 125.712 75.1088 128.189 75.1088C128.344 75.1088 128.344 75.1088 128.344 75.1088H128.498C129.892 75.2634 131.13 75.5725 132.369 76.1907C133.607 76.8088 134.227 77.427 134.227 78.1998C134.227 78.3543 134.227 78.3543 134.227 78.5088C134.227 78.6634 134.227 78.6634 134.072 78.6634C134.072 78.8179 133.917 78.8179 133.762 78.9725C133.607 79.127 133.298 79.2816 132.988 79.4361C132.678 79.5907 132.524 79.7452 132.369 80.0543C132.214 80.3634 132.059 80.6725 132.059 80.9816C132.059 81.5998 132.369 82.0634 132.833 82.527C133.453 82.9907 134.072 83.1452 134.846 83.1452C135.775 83.1452 136.549 82.8361 137.168 82.3725C137.787 81.9088 138.097 81.2907 138.097 80.5179C138.097 80.3634 138.097 80.0543 138.097 79.8998C138.097 79.7452 137.942 79.4361 137.942 79.2816C137.787 78.8179 137.323 78.5088 136.859 78.0452C136.394 77.5816 135.62 77.1179 134.691 76.4998C133.917 76.0361 133.298 75.4179 132.678 74.9543C132.059 74.4907 131.595 74.027 131.285 73.5634C130.821 72.9452 130.511 72.4816 130.201 71.8634C129.892 71.2452 130.047 70.7816 130.047 70.1634C130.047 70.0089 130.047 69.6998 130.047 69.5452C130.047 69.3907 130.047 69.2361 130.047 69.0816C130.201 68.7725 130.201 68.3089 130.356 67.8452C130.511 67.3816 130.821 66.9179 131.13 66.2998C130.511 65.9907 129.892 65.8361 129.427 65.6816C128.963 65.527 128.653 65.527 128.189 65.527C127.569 65.527 126.95 65.6816 126.486 66.1452C126.021 66.6088 125.712 67.0725 125.712 67.5361C125.712 68.1543 125.867 68.6179 126.331 68.927C126.641 69.2361 127.26 69.5452 127.879 69.5452C128.189 69.5452 128.498 69.6998 128.653 69.6998C128.808 69.6998 128.808 70.0088 128.963 70.3179C128.963 70.9361 128.498 71.5543 127.415 72.0179C126.331 72.4816 125.092 72.7907 123.544 72.7907C121.222 72.7907 119.209 72.1725 117.816 70.9361C116.423 69.6998 115.649 68.1543 115.649 66.1452C115.649 64.2907 116.423 62.5907 117.971 61.3543C119.519 60.1179 121.377 59.3452 123.544 59.3452C123.699 59.3452 123.854 59.3452 124.009 59.3452C124.164 59.3452 124.318 59.3452 124.473 59.3452C125.247 59.3452 126.176 59.6543 127.105 59.8088C128.034 59.9634 129.272 60.5816 130.821 61.1998C131.285 61.3543 131.75 61.6634 132.059 61.8179C132.369 61.9725 132.678 62.127 132.988 62.2816C132.988 62.2816 133.143 62.2816 133.143 62.4361C133.143 62.4361 133.298 62.4361 133.298 62.5907C133.453 62.7452 133.607 62.7452 133.762 62.8998C133.917 63.0543 134.072 63.0543 134.227 63.2089C135.465 62.2816 136.859 61.6634 138.252 61.1998ZM141.967 66.7634C142.587 66.9179 143.051 67.0725 143.361 67.0725C143.67 67.0725 143.98 66.9179 144.135 66.7634C144.29 66.6088 144.445 66.2998 144.445 66.1452C144.445 65.8361 144.29 65.527 143.825 65.3725C143.361 65.2179 143.051 64.9088 142.432 64.9088C142.122 64.9088 141.967 64.9088 141.813 64.9088C141.658 64.9088 141.348 65.0634 141.193 65.0634C141.039 65.2179 140.729 65.2179 140.419 65.3725C140.11 65.527 139.955 65.6816 139.645 65.8361C140.574 66.2998 141.348 66.4543 141.967 66.7634Z" fill="#E0AAFF"/>
<path d="M148.934 88.0909L153.734 66.1454C153.734 65.8363 153.888 65.6818 153.888 65.3727C153.888 65.0636 153.888 65.0636 153.888 64.909C153.888 64.5999 153.888 64.2909 153.734 64.1363C153.579 63.9818 153.424 63.8272 152.96 63.6727C153.424 63.209 153.888 62.8999 154.508 62.5909C155.127 62.2818 155.591 61.9727 156.211 61.8181C156.675 61.6636 156.985 61.509 157.449 61.509C157.914 61.3545 158.223 61.3545 158.533 61.3545C159.307 61.3545 159.772 61.509 160.236 61.9727C160.7 62.2818 160.855 62.8999 160.855 63.5181V63.6727C160.855 63.8272 160.855 63.8272 160.855 63.9818C160.855 63.9818 160.855 63.9818 160.855 64.1363V64.2909L158.843 73.5636C159.926 72.9454 160.7 72.3272 161.32 72.0181C161.939 71.709 162.403 71.3999 162.868 71.3999C163.178 71.3999 163.332 71.2454 163.642 71.2454C163.797 71.2454 164.106 71.2454 164.416 71.2454C165.5 71.2454 166.429 71.5545 167.203 72.1727C167.977 72.7909 168.286 73.5636 168.286 74.4909C168.286 74.6454 168.286 74.7999 168.286 75.109C168.286 75.2636 168.286 75.4181 168.286 75.5727V75.7272V75.8818L167.203 80.6727C167.203 80.9818 167.048 81.1363 167.048 81.4454C167.048 81.7545 167.048 81.909 167.048 82.0636C167.048 82.3727 167.203 82.6818 167.358 82.9909C167.667 83.2999 167.977 83.2999 168.286 83.2999H168.441H168.596H168.751H168.906C169.215 83.1454 169.37 83.1454 169.525 82.9909C169.68 82.9909 169.835 82.8363 169.989 82.8363C170.144 82.8363 170.299 82.8363 170.454 82.9909C170.609 83.1454 170.609 83.2999 170.609 83.4545C170.609 83.7636 170.454 84.0727 170.144 84.3818C169.835 84.6909 169.525 85.1545 169.061 85.6181C168.906 85.6181 168.906 85.7727 168.906 85.7727L168.751 85.9272C168.132 86.3909 167.667 86.6999 167.048 86.8545C166.429 87.1636 165.809 87.3181 165.19 87.3181C165.035 87.3181 164.726 87.4727 164.571 87.4727C164.416 87.4727 164.106 87.4727 163.952 87.4727C162.868 87.4727 161.784 87.1636 161.165 86.5454C160.391 85.9272 160.081 85.1545 160.081 84.0727C160.081 83.9181 160.081 83.7636 160.081 83.609C160.081 83.4545 160.081 83.2999 160.081 83.1454L161.01 78.8181C161.01 78.6636 161.01 78.509 161.01 78.3545C161.01 78.1999 161.01 78.0454 161.01 78.0454C161.01 77.7363 160.855 77.4272 160.7 77.2727C160.546 77.1181 160.236 76.9636 159.926 76.9636C159.307 76.9636 158.843 77.2727 158.378 77.7363C158.069 78.1999 157.759 78.9727 157.449 80.0545L156.52 84.6909C156.366 85.4636 156.056 86.0818 155.437 86.5454C154.972 87.009 154.198 87.1636 153.424 87.1636H152.031C151.721 87.1636 151.566 87.1636 151.257 87.1636C150.947 87.1636 150.792 87.3181 150.482 87.3181C150.328 87.4727 150.018 87.4727 149.863 87.6272C149.399 87.7818 149.089 87.9363 148.934 88.0909Z" fill="#E0AAFF"/>
<path d="M185.781 73.0997C187.019 74.336 187.639 75.8815 187.639 77.8906C187.639 80.5178 186.71 82.836 184.852 84.6906C182.994 86.5451 180.672 87.4724 177.885 87.4724C175.873 87.4724 174.324 86.8542 173.086 85.6178C171.847 84.3815 171.228 82.836 171.228 80.8269C171.228 78.1997 172.157 75.8815 174.17 74.0269C176.027 72.1724 178.35 71.2451 181.136 71.2451C182.994 71.2451 184.542 71.8633 185.781 73.0997ZM178.814 76.1906C178.35 76.8088 178.195 77.4269 178.195 78.0451C178.195 78.5088 178.35 78.9724 178.659 79.2815C178.969 79.5906 179.279 79.7451 179.743 79.7451C180.362 79.7451 180.827 79.436 181.291 78.9724C181.756 78.5088 181.91 77.736 181.91 76.9633C181.91 76.4997 181.756 76.036 181.446 75.7269C181.136 75.4178 180.827 75.2633 180.362 75.2633C179.743 75.4178 179.124 75.5724 178.814 76.1906Z" fill="#E0AAFF"/>
<path d="M186.555 96.2816L191.819 73.2543C191.819 72.9452 191.974 72.7907 191.974 72.4816C191.974 72.1725 191.974 72.0179 191.974 72.0179C191.974 71.8634 191.974 71.7088 191.819 71.5543C191.819 71.3997 191.664 71.2452 191.509 71.0907C191.354 70.9361 191.354 70.9361 191.199 70.9361C191.045 70.9361 191.045 70.7816 190.89 70.7816C191.664 70.1634 192.283 69.6997 192.902 69.3907C193.522 69.0816 194.141 68.7725 194.76 68.6179C195.07 68.4634 195.225 68.4634 195.534 68.4634C195.844 68.4634 195.999 68.4634 196.308 68.4634C197.083 68.4634 197.702 68.6179 198.166 68.927C198.631 69.2361 198.785 69.6997 198.785 70.3179C198.785 70.4725 198.785 70.627 198.785 70.7816C198.785 70.9361 198.786 71.0907 198.631 71.2452L198.321 72.7907C198.786 72.4816 199.25 72.1725 199.56 72.0179C200.024 71.8634 200.334 71.7088 200.798 71.5543C201.108 71.3997 201.263 71.3997 201.572 71.3997C201.882 71.3997 202.037 71.3997 202.346 71.3997C203.74 71.3997 204.978 71.8634 205.907 72.9452C206.836 74.027 207.3 75.2634 207.3 76.9634C207.3 79.8997 206.526 82.3725 204.978 84.5361C203.43 86.6997 201.572 87.7816 199.405 87.7816C198.631 87.7816 198.011 87.627 197.392 87.4725C196.773 87.1634 196.308 86.8543 195.689 86.2361C195.534 86.2361 195.534 86.0816 195.534 86.0816C195.534 85.927 195.38 85.927 195.38 85.7725L193.831 92.4179C193.677 93.4997 193.212 94.1179 192.748 94.5816C192.283 95.0452 191.509 95.1997 190.735 95.1997H189.032C188.722 95.1997 188.568 95.1997 188.413 95.1997C188.258 95.1997 188.103 95.3543 187.948 95.3543C187.793 95.5088 187.484 95.5088 187.329 95.8179C187.174 95.8179 186.865 95.9725 186.555 96.2816ZM199.405 75.4179C199.25 75.4179 199.25 75.4179 199.405 75.4179C198.786 75.5725 198.321 75.8816 197.857 76.3452C197.392 76.9634 197.237 77.427 197.237 78.1997C197.237 78.6634 197.392 78.9725 197.702 79.2816C198.011 79.5907 198.321 79.7452 198.785 79.7452C199.405 79.7452 199.869 79.4361 200.334 78.8179C200.798 78.1997 200.953 77.5816 200.953 76.8088C200.953 76.3452 200.798 76.0361 200.643 75.727C200.334 75.4179 200.024 75.2634 199.714 75.2634C199.405 75.4179 199.405 75.4179 199.405 75.4179Z" fill="#E0AAFF"/>
<path d="M222.008 72.1725C223.247 72.7906 223.866 73.7179 223.866 74.6452C223.866 75.1088 223.711 75.5725 223.247 76.0361C222.782 76.4997 222.318 76.6543 221.853 76.6543C221.698 76.6543 221.698 76.6543 221.544 76.6543C221.389 76.6543 221.389 76.6543 221.234 76.6543C220.924 76.6543 220.615 76.4997 220.46 76.1906C220.305 75.8816 219.841 75.727 219.376 75.4179C219.067 75.1088 218.757 74.7997 218.447 74.6452C218.138 74.4906 217.983 74.4906 217.673 74.4906C217.364 74.4906 217.209 74.4906 217.054 74.6452C216.899 74.7997 216.744 74.9543 216.744 75.1088C216.744 75.2634 216.744 75.5725 216.899 75.727C217.054 75.8816 217.209 76.1906 217.518 76.3452C217.518 76.3452 217.673 76.3452 217.828 76.4997C217.983 76.6543 218.447 76.8088 219.376 77.427C220.46 78.0452 221.234 78.6634 221.698 79.2816C222.163 80.0543 222.473 80.827 222.473 81.5997C222.473 83.2997 221.698 84.8452 220.15 85.927C218.602 87.0088 216.744 87.627 214.267 87.627C212.409 87.627 210.706 87.3179 209.468 86.5452C208.229 85.7725 207.61 84.8452 207.61 83.6088C207.61 82.8361 207.92 82.2179 208.384 81.7543C208.849 81.2906 209.468 80.9816 210.242 80.9816C210.552 80.9816 210.706 80.9816 210.861 80.9816C211.016 80.9816 211.171 81.1361 211.481 81.1361C211.79 81.2906 212.1 81.4452 212.409 81.7543C212.719 82.0634 213.184 82.527 213.648 82.9906C213.803 83.1452 213.803 83.1452 213.958 83.2997C214.112 83.4543 214.112 83.4543 214.267 83.6088C214.577 83.7634 214.732 83.9179 215.041 84.0725C215.351 84.227 215.506 84.227 215.661 84.227C215.815 84.227 216.125 84.0725 216.28 83.9179C216.435 83.7634 216.589 83.6088 216.589 83.2997C216.589 83.1452 216.589 83.1452 216.589 83.1452V82.9906C216.435 82.8361 216.28 82.6816 215.97 82.3725C215.661 82.0634 215.041 81.7543 214.267 81.1361C213.493 80.6725 212.874 80.2088 212.409 79.8997C211.945 79.5906 211.481 79.127 211.326 78.8179C211.016 78.5088 210.861 78.0452 210.861 77.7361C210.706 77.427 210.706 76.9634 210.706 76.4997C210.706 75.1088 211.326 73.8725 212.719 72.9452C214.112 72.0179 215.506 71.3997 217.364 71.3997C219.221 71.2452 220.77 71.5543 222.008 72.1725Z" fill="#E0AAFF"/>
<path d="M52.1734 57.3362C71.0611 63.2089 84.8398 63.0544 93.9741 61.3544C87.4717 54.7089 75.0864 47.4453 51.3993 44.9725C25.5448 42.3453 13.7787 51.9271 8.36011 61.0453C17.1847 55.3271 31.4279 50.8453 52.1734 57.3362Z" fill="#C77DFF"/>
<path d="M0 76.3451C0 76.3451 15.7914 51.3087 52.7927 63.8269C89.794 76.3451 106.359 63.8269 106.359 63.8269C106.359 63.8269 108.991 102 57.4372 102C5.88306 102 0 76.3451 0 76.3451Z" fill="#E0AAFF"/>
<path d="M70.7515 0C59.6046 6.95455 56.6631 27.0455 56.6631 27.0455L58.3661 27.8182C62.0817 10.3545 79.2664 1.23636 79.2664 1.23636L70.7515 0Z" fill="#C77DFF"/>
<path d="M80.8146 47.4454C80.8146 46.6727 80.9694 46.0545 80.9694 45.2818C80.9694 30.7545 69.2033 18.8545 54.4956 18.8545C42.2651 18.8545 32.0471 27.0454 29.1056 38.3272C42.1102 36.7818 64.0943 36.3181 80.8146 47.4454Z" fill="#7B2CBF"/>
<path opacity="0.1" d="M80.9693 45.2818C80.9693 37.2455 77.4085 29.9818 71.6803 25.1909C65.6424 29.8273 53.4119 35.8546 32.8212 30.4455C31.273 32.7636 30.0345 35.3909 29.2604 38.3273C42.265 36.7818 64.4039 36.3182 80.9693 47.4455C80.8145 46.8273 80.9693 46.0546 80.9693 45.2818Z" fill="#414042"/>
<path opacity="0.3" d="M56.9727 23.9545C57.592 26.4272 53.4119 27.8181 48.9222 28.7454C44.5873 29.8272 41.6458 30.1363 41.0265 27.6636C40.4073 25.1909 43.5036 22.4091 47.8385 21.3272C52.3282 20.4 56.3534 21.6363 56.9727 23.9545Z" fill="white"/>
<path opacity="0.1" d="M83.7561 69.391C69.2033 76.6547 40.5621 85.9274 1.39336 74.491C0.464452 75.5729 0 76.3456 0 76.3456C0 76.3456 5.88306 102 57.4372 102C108.991 102 106.359 63.6729 106.359 63.6729C106.359 63.6729 99.2379 69.2365 83.7561 69.391Z" fill="#414042"/>
<path opacity="0.3" d="M43.0392 69.3909C42.8844 72.6364 37.9302 73.1 32.6665 72.9455C27.4027 72.7909 24.1515 72.3273 24.3063 68.9273C24.4611 65.6818 28.6412 63.0546 33.905 63.2091C39.014 63.2091 43.194 65.9909 43.0392 69.3909Z" fill="white"/>
</svg>
