<svg width="151" height="66" viewBox="0 0 151 66" fill="none" xmlns="http://www.w3.org/2000/svg">
<g clip-path="url(#clip0_34_86)">
<path d="M85.4 18C85.4 18 85.5 18.1 85.6 18.1C85.7 18.1 85.9 18.2 86 18.3C86.9 17.9 87.7 17.6 88.4 17.4C89.1 17.2 89.8 17 90.5 16.9C90.8 16.8 91.1 16.8 91.4 16.8C91.7 16.8 92 16.8 92.4 16.8C94 16.8 95.3 17.1 96.3 17.7C97.3 18.3 97.8 19.2 97.8 20.2C97.8 21.2 97.4 22 96.6 22.6C95.8 23.3 94.8 23.6 93.7 23.6C93 23.6 92.1 23.5 91.2 23.2C90.3 22.9 89.2 22.4 87.8 21.8C86.9 22.5 86.1 23.4 85.6 24.4C85.1 25.4 84.8 26.4 84.7 27.4V27.5V27.6C84.7 28.5 84.9 29.2 85.4 29.8C85.9 30.3 86.5 30.6 87.3 30.6C88 30.6 88.5 30.4 89 30C89.5 29.6 89.7 29.1 89.7 28.6C89.7 28.2 89.6 27.9 89.3 27.7C89 27.5 88.7 27.3 88.3 27.3C88.2 27.3 88.2 27.3 88.2 27.3H88.1H88H87.9C87.8 27.3 87.7 27.3 87.6 27.4C87.5 27.4 87.5 27.4 87.4 27.4C87.2 27.4 87.1 27.3 86.9 27.2C86.7 27.1 86.7 26.9 86.7 26.7C86.7 26.6 86.7 26.6 86.7 26.5C86.7 26.4 86.8 26.3 86.8 26.2C87 25.8 87.5 25.3 88.2 24.9C88.9 24.5 89.7 24.2 90.5 24.1C90.7 24.1 90.8 24.1 91 24C91.2 23.9 91.3 24 91.5 24C92.8 24 93.8 24.4 94.6 25.1C95.4 25.9 95.8 26.8 95.8 28C95.8 30.2 94.9 32.1999 93.1 33.7999C91.3 35.4 89.1 36.2 86.6 36.2C85.2 36.2 83.9 36 82.9 35.5C81.9 35 81 34.3 80.3 33.4C79.8 32.7 79.4 32 79.2 31.2C78.9 30.4 78.8 29.6 78.8 28.7C78.8 27.2 79.2 25.6 80 24.1C80.8 22.6 81.9 21.2 83.4 19.8C83 19.7 82.6 19.6 82.4 19.6C82.1 19.5 81.8 19.5 81.5 19.5C81.4 19.5 81.3 19.5 81.2 19.5C81.1 19.5 81 19.5 80.9 19.5C80.1 19.5 79.5 19.6 79.1 19.9C78.6 20.2 78.4 20.5 78.4 21C78.4 21 78.4 21 78.4 21.1C78.4 21.2 78.4 21.1 78.4 21.2C78.4 21.4 78.5 21.5 78.6 21.6C78.7 21.7 78.8 21.8 79 21.8L80 21.7C80 21.7 80 21.7 80.1 21.7C80.2 21.7 80.3 21.8 80.4 21.9C80.5 22 80.5 22.1 80.5 22.3C80.5 22.8 80.1 23.3 79.2 23.7C78.3 24.1 77.4 24.3 76.4 24.4C75.1 24.4 74.1 24 73.3 23.3C72.5 22.5 72.1 21.6 72.1 20.4C72.1 18.9 72.7 17.7 73.9 16.7C75.1 15.7 76.5 15.2 78.2 15.2C78.4 15.2 78.7 15.2 78.9 15.2C79.1 15.2 79.4 15.2 79.6 15.3C80.1 15.4 80.5 15.5 81 15.7C81.5 15.9 82.1 16.1 82.7 16.4C82.8 16.5 82.9 16.5 82.9 16.5C82.9 16.5 83 16.5 83 16.6C83.1 16.6 83.2 16.7 83.3 16.7C83.4 16.8 83.8 17 84.3 17.2L85.1 17.6L85.4 18ZM91.8 20.7C92.2 20.8 92.5 20.9 92.8 20.9H92.9C92.9 20.9 92.9 20.9 93 20.9C93.3 20.9 93.5 20.8 93.7 20.7C93.9 20.6 94 20.4 94 20.2C94 20 93.9 19.8 93.7 19.6C93.5 19.5 93.2 19.4 92.9 19.4C92.8 19.4 92.6 19.4 92.5 19.4C92.4 19.4 92.2 19.4 92.1 19.4C91.9 19.4 91.6 19.5 91.3 19.6C91 19.7 90.6 19.8 90.2 20C90.8 20.4 91.4 20.6 91.8 20.7Z" fill="white"/>
<path d="M108.1 29.5C108 29.7 108 29.9 108 30.1C108 30.3 108 30.4 108 30.5C108 30.7 108.1 30.8 108.2 31C108.3 31.2 108.5 31.2 108.8 31.2C108.9 31.2 108.9 31.2 109 31.2C109.1 31.2 109.1 31.2 109.2 31.2H109.3H109.4C109.5 31.1 109.7 31.1 109.8 31.1C109.9 31.1 110 31.1 110.1 31.1C110.2 31.1 110.3 31.1 110.4 31.2C110.5 31.3 110.5 31.4 110.5 31.5C110.5 31.6 110.5 31.8 110.4 32C110.3 32.2 110.2 32.3 110 32.5C109.9 32.6 109.9 32.5999 109.9 32.5999L109.8 32.7C109.5 33 109.1 33.3 108.7 33.5C108.3 33.7 107.9 33.9 107.5 34C107.3 34.1 107.1 34.0999 106.8 34.0999C106.6 34.0999 106.4 34.2 106.1 34.2C105.5 34.2 104.9 33.9999 104.5 33.5999C104.1 33.1999 103.9 32.6999 103.9 32.0999C103.9 31.9999 103.9 31.9 103.9 31.7999C103.9 31.6999 103.9 31.6 103.9 31.5C103.6 31.9 103.3 32.2 103.2 32.4C103.1 32.6 102.9 32.8 102.7 32.9C102.7 32.9 102.7 32.9 102.6 33C102.6 33 102.6 32.9999 102.5 33.0999C102.5 33.1999 102.4 33.2 102.4 33.2L102.3 33.2999C102.1 33.4999 101.9 33.6999 101.7 33.7999C101.5 33.9 101.2 34.0999 101 34.0999C100.8 34.1999 100.7 34.2 100.5 34.2C100.3 34.2 100.2 34.2999 99.9999 34.2999C99.1999 34.2999 98.5999 33.9999 98.0999 33.2999C97.5999 32.6999 97.2999 31.7999 97.2999 30.7999C97.2999 28.9999 97.8999 27.4 99.0999 25.9C100.3 24.4 101.7 23.7 103.1 23.7C103.6 23.7 104.1 23.8 104.5 24C104.9 24.2 105.3 24.5 105.7 24.9C106.2 24.6 106.6 24.3 106.8 24.2C107.1 24.1 107.3 23.9 107.6 23.9C107.7 23.9 107.8 23.9 107.8 23.9C107.9 23.9 108 23.9 108.1 23.9C108.5 23.9 108.7 24 108.9 24.2C109.1 24.4 109.2 24.6 109.2 24.9C109.2 25 109.2 25 109.2 25.1C109.2 25.2 109.2 25.3 109.1 25.4L108.1 29.5ZM102.6 26.7999C102.3 27.1999 102.1 27.6 102.1 28C102.1 28.3 102.2 28.5 102.3 28.7C102.5 28.9 102.7 29 103 29C103.4 29 103.7 28.8 104 28.4C104.3 27.9999 104.4 27.6 104.5 27.2C104.5 27 104.4 26.8 104.3 26.6C104.2 26.5 104 26.4 103.7 26.4C103.3 26.3 103 26.4999 102.6 26.7999Z" fill="white"/>
<path d="M110.5 34.3999L112.2 26.7999C112.2 26.5999 112.3 26.3999 112.3 26.1999C112.3 25.9999 112.3 25.8999 112.3 25.7999C112.3 25.5999 112.3 25.3999 112.2 25.2999C112.1 25.1999 112 24.9999 111.7 24.8999C112.4 24.3999 113 23.9999 113.6 23.7999C114.2 23.5999 114.7 23.3999 115.3 23.3999C115.8 23.3999 116.2 23.4999 116.5 23.7999C116.8 23.9999 116.9 24.3999 116.9 24.8999C117.5 24.3999 118.1 23.9999 118.7 23.7999C119.3 23.5999 119.9 23.3999 120.5 23.3999C121.2 23.3999 121.8 23.5999 122.2 23.9999C122.6 24.3999 122.9 24.8999 122.9 25.5999C122.9 25.6999 122.9 25.7999 122.9 25.8999C122.9 25.9999 122.9 26.0999 122.9 26.1999V26.2999V26.3999L122.1 29.6999C122.1 29.8999 122 29.9999 122 30.0999C122 30.1999 122 30.2999 122 30.3999C122 30.5999 122.1 30.7999 122.2 30.8999C122.3 30.9999 122.6 31.0999 122.8 31.0999C122.9 31.0999 123 31.0999 123.1 31.0999C123.2 31.0999 123.3 31.0999 123.3 30.9999C123.5 30.8999 123.6 30.8999 123.7 30.8999C123.8 30.8999 123.9 30.7999 124 30.7999C124.1 30.7999 124.2 30.7999 124.3 30.8999C124.4 30.9999 124.4 31.0999 124.4 31.1999C124.4 31.3999 124.3 31.6999 124 31.9999C123.8 32.2999 123.4 32.5999 123 32.8999C122.6 33.1999 122.2 33.3999 121.7 33.4999C121.2 33.6999 120.8 33.7999 120.3 33.7999C120.2 33.7999 120.2 33.7999 120.1 33.7999C120 33.7999 119.9 33.7999 119.9 33.7999C119.1 33.7999 118.5 33.5999 118.1 33.1999C117.7 32.7999 117.4 32.2999 117.4 31.5999C117.4 31.4999 117.4 31.4999 117.4 31.3999C117.4 31.2999 117.4 31.2999 117.4 31.1999C117.4 31.1999 117.4 31.1999 117.4 31.0999V30.9999L118 28.1999C118 28.1999 118 28.1999 118 28.0999C118 27.9999 118 28.0999 118 27.9999C118 27.8999 118 27.7999 118 27.6999C118 27.5999 118 27.5999 118 27.4999C118 27.2999 117.9 27.0999 117.8 26.9999C117.7 26.8999 117.5 26.7999 117.3 26.7999C117 26.7999 116.7 26.8999 116.4 27.1999C116.2 27.4999 116 27.8999 115.8 28.3999L115.1 31.5999C115 32.0999 114.7 32.5999 114.4 32.8999C114.1 33.1999 113.7 33.3999 113.2 33.3999H112.1C111.8 33.3999 111.5 33.3999 111.3 33.4999C111.1 33.4999 110.9 33.5999 110.7 33.7999C110.6 33.7999 110.6 33.8999 110.5 33.8999C110.6 34.2999 110.6 34.2999 110.5 34.3999Z" fill="white"/>
<path d="M133.6 20.3C133.6 20.2 133.6 20.2 133.6 20.1C133.6 20 133.6 20 133.6 20C133.6 19.9 133.6 19.8 133.6 19.8C133.6 19.8 133.6 19.7 133.6 19.6C133.6 19.5 133.6 19.3 133.6 19.2C133.6 19.1 133.5 19 133.5 18.9C133.4 18.8 133.4 18.8 133.3 18.7C133.2 18.6 133.1 18.6 133 18.5C133.6 18.1 134.1 17.8 134.5 17.5C134.9 17.3 135.3 17.1 135.7 17.1C135.8 17.1 136 17 136.1 17C136.2 17 136.4 17 136.5 17C137 17 137.4 17.1 137.7 17.4C138 17.6 138.1 18 138.1 18.5C138.1 18.6 138.1 18.6 138.1 18.6V18.7V18.8V18.9L135.8 29.5C135.8 29.5 135.8 29.5 135.8 29.6V29.7C135.8 29.8 135.8 29.9 135.8 30C135.8 30.1 135.8 30.2 135.8 30.3C135.8 30.5 135.9 30.7 136 30.9C136.1 31.1 136.3 31.1 136.5 31.1C136.6 31.1 136.6 31.1 136.7 31.1H136.8H136.9H137C137.2 31 137.3 31 137.4 31C137.5 31 137.6 30.9 137.7 30.9C137.8 30.9 137.9 30.9 138 31C138.1 31.1 138.1 31.2 138.1 31.3C138.1 31.6 138 31.8 137.8 32.1C137.6 32.4 137.2 32.7 136.8 33C136.6 33.2 136.3 33.3 136.1 33.4C135.8 33.5 135.6 33.6 135.3 33.7C135 33.8 134.8 33.8 134.5 33.9C134.2 34 134 34 133.7 34C133 34 132.5 33.8 132.1 33.4C131.7 33 131.5 32.5 131.5 31.9V31.8V31.7C131.5 31.6 131.5 31.6 131.5 31.5C131.5 31.4 131.5 31.4 131.5 31.3C131 31.9 130.6 32.4 130.2 32.8C129.8 33.2 129.4 33.5 129 33.7C128.8 33.8 128.5 33.9 128.3 33.9C128.1 34 127.8 34 127.6 34C126.8 34 126.1 33.7 125.7 33.1C125.2 32.5 125 31.6 125 30.6C125 28.8 125.6 27.1 126.8 25.7C128 24.3 129.3 23.6 130.8 23.6C131.2 23.6 131.6 23.6 131.9 23.7C132.2 23.8 132.5 23.9 132.7 24.1C132.7 24.1 132.8 24.1 132.8 24.2C132.8 24.2 132.9 24.2 132.9 24.3L133.6 20.3ZM130.2 26.8C129.9 27.2 129.7 27.7 129.7 28.2C129.7 28.5 129.8 28.7 130 28.9C130.2 29.1 130.4 29.2 130.6 29.2C131 29.2 131.3 29 131.6 28.6C131.9 28.2 132.1 27.8 132.1 27.4C132.1 27.4 132.1 27.4 132.1 27.3C132.1 27.3 132.1 27.3 132.1 27.2C132.1 26.9 132 26.7 131.9 26.5C131.7 26.3 131.6 26.2 131.3 26.2C130.9 26.2 130.5 26.4 130.2 26.8Z" fill="white"/>
<path d="M148.9 32.6C148.5 34.6 147.6 36.2001 146.2 37.4001C144.8 38.6001 143.2 39.2001 141.4 39.2001C140.3 39.2001 139.4 38.9001 138.8 38.4001C138.1 37.9001 137.8 37.2001 137.8 36.4001C137.8 35.9001 137.9 35.5001 138.1 35.2001C138.3 34.9001 138.6 34.5001 139 34.2001C139.1 34.1 139.2 34.1 139.3 34C139.4 33.9 139.5 33.9 139.6 33.8C139.7 34.3 140 34.7 140.3 35C140.6 35.3 141.1 35.4001 141.6 35.4001C142.3 35.4001 142.9 35.1 143.5 34.6C144.1 34.1 144.5 33.4 144.7 32.5C144.1 32.9 143.6 33.2001 143.2 33.4001C142.8 33.6001 142.3 33.7 141.9 33.8C141.8 33.8 141.7 33.8 141.6 33.8C141.5 33.8 141.4 33.8 141.3 33.8C140.6 33.8 140 33.6 139.5 33.2001C139 32.8001 138.8 32.2 138.8 31.5C138.8 31.4 138.8 31.3001 138.8 31.2001C138.8 31.1001 138.8 30.9 138.9 30.8C138.9 30.7 138.9 30.7 138.9 30.6C138.9 30.5001 138.9 30.5 138.9 30.4L139.7 26.5V26.4V26.3C139.7 26.2 139.7 26.2 139.7 26.1C139.7 26.0001 139.7 26 139.7 25.9C139.7 25.8 139.7 25.7 139.7 25.6C139.7 25.5001 139.7 25.4 139.6 25.3C139.6 25.2 139.5 25.2 139.4 25.1C139.3 25 139.2 24.9 139.1 24.8C139.7 24.4 140.2 24 140.7 23.8C141.2 23.6 141.6 23.4 142 23.3C142.1 23.3 142.2 23.3 142.4 23.3C142.6 23.3 142.6 23.3 142.8 23.3C143.2 23.3 143.6 23.4001 143.9 23.7001C144.2 23.9001 144.3 24.3001 144.3 24.7001C144.3 24.8001 144.3 24.9 144.3 25C144.3 25.1 144.3 25.2 144.2 25.4L143.5 28.8C143.5 28.9 143.4 29.0001 143.4 29.1C143.4 29.2 143.4 29.3 143.4 29.4C143.4 29.6 143.4 29.8 143.6 29.9C143.8 30 143.9 30.1 144.1 30.1C144.5 30.1 144.7 30.0001 145 29.7001C145.2 29.5001 145.4 29.1 145.5 28.5L146 26.6V26.5V26.4C146 26.3 146 26.2 146 26.1C146 26.0001 146 25.9 146 25.9C146 25.7 146 25.6 145.9 25.5C145.9 25.4 145.8 25.3001 145.7 25.2001L145.6 25.1L145.5 25C146.1 24.5 146.7 24.1 147.3 23.9C147.9 23.7 148.4 23.5 148.9 23.5C149.4 23.5 149.7 23.6 150 23.8C150.3 24 150.4 24.3001 150.5 24.7001C150.5 24.8001 150.5 24.9 150.5 25C150.5 25.1 150.5 25.2 150.4 25.3L148.9 32.6Z" fill="white"/>
<path d="M89.3 39.5999C90.2 39.2999 91.2 39.1999 92.1 39.1999C93.6 39.1999 94.9 39.4999 95.9 40.1999C96.9 40.8999 97.4 41.6999 97.4 42.6999C97.4 43.5999 97 44.3999 96.2 44.8999C95.4 45.4999 94.3 45.6999 93 45.6999C92.8 45.6999 92.6 45.6999 92.4 45.6999C92.2 45.6999 92 45.6999 91.9 45.6999C91.5 45.5999 91 45.4999 90.5 45.2999C90 45.0999 89.3 44.7999 88.4 44.3999C88.4 44.4999 88.4 44.5999 88.4 44.5999C88.4 44.6999 88.4 44.6999 88.4 44.7999C88.4 44.9999 88.5 45.2999 88.7 45.5999C88.9 45.8999 89.2 46.0999 89.5 46.3999H89.6C89.6 46.3999 89.7 46.4999 90 46.5999C90.2 46.6999 90.9 47.0999 92.1 47.7999C93.1 48.3999 93.8 49.0999 94.3 49.7999C94.8 50.4999 95 51.2999 95 52.2999C95 54.3999 94.1 56.0999 92.3 57.2999C90.5 58.5999 88.2 59.1999 85.3 59.1999C82.8 59.1999 80.8 58.6999 79.3 57.5999C77.8 56.4999 77 55.3999 77 53.6999C77 52.2999 77.6 51.0999 78.7 50.0999C79.8 49.0999 81.2 48.5999 82.8 48.5999C82.9 48.5999 82.9 48.5999 82.9 48.5999H83C83.9 48.6999 84.7 48.8999 85.5 49.2999C86.3 49.6999 86.7 50.0999 86.7 50.5999C86.7 50.6999 86.7 50.6999 86.7 50.7999C86.7 50.8999 86.7 50.8999 86.6 50.8999C86.6 50.9999 86.5 50.9999 86.4 51.0999C86.3 51.1999 86.1 51.2999 85.9 51.3999C85.7 51.4999 85.6 51.5999 85.5 51.7999C85.4 51.9999 85.3 52.1999 85.3 52.3999C85.3 52.7999 85.5 53.0999 85.8 53.3999C86.2 53.6999 86.6 53.7999 87.1 53.7999C87.7 53.7999 88.2 53.5999 88.6 53.2999C89 52.9999 89.2 52.5999 89.2 52.0999C89.2 51.9999 89.2 51.7999 89.2 51.6999C89.2 51.5999 89.1 51.3999 89.1 51.2999C89 50.9999 88.7 50.7999 88.4 50.4999C88.1 50.1999 87.6 49.8999 87 49.4999C86.5 49.1999 86.1 48.7999 85.7 48.4999C85.3 48.1999 85 47.8999 84.8 47.5999C84.5 47.1999 84.3 46.8999 84.1 46.4999C83.9 46.0999 84 45.7999 84 45.3999C84 45.2999 84 45.0999 84 44.9999C84 44.8999 84 44.7999 84 44.6999C84.1 44.4999 84.1 44.1999 84.2 43.8999C84.3 43.5999 84.5 43.2999 84.7 42.8999C84.3 42.6999 83.9 42.5999 83.6 42.4999C83.3 42.3999 83.1 42.3999 82.8 42.3999C82.4 42.3999 82 42.4999 81.7 42.7999C81.4 43.0999 81.2 43.3999 81.2 43.6999C81.2 44.0999 81.3 44.3999 81.6 44.5999C81.8 44.7999 82.2 44.9999 82.6 44.9999C82.8 44.9999 83 45.0999 83.1 45.0999C83.2 45.0999 83.2 45.2999 83.3 45.4999C83.3 45.8999 83 46.2999 82.3 46.5999C81.6 46.8999 80.8 47.0999 79.8 47.0999C78.3 47.0999 77 46.6999 76.1 45.8999C75.2 45.0999 74.7 44.0999 74.7 42.7999C74.7 41.5999 75.2 40.4999 76.2 39.6999C77.2 38.8999 78.4 38.3999 79.8 38.3999C79.9 38.3999 80 38.3999 80.1 38.3999C80.2 38.3999 80.3 38.3999 80.4 38.3999C80.9 38.3999 81.5 38.5999 82.1 38.6999C82.7 38.7999 83.5 39.1999 84.5 39.5999C84.8 39.6999 85.1 39.8999 85.3 39.9999C85.5 40.0999 85.7 40.1999 85.9 40.2999C85.9 40.2999 86 40.2999 86 40.3999C86 40.3999 86.1 40.3999 86.1 40.4999C86.2 40.5999 86.3 40.5999 86.4 40.6999C86.5 40.7999 86.6 40.7999 86.7 40.8999C87.5 40.2999 88.4 39.8999 89.3 39.5999ZM91.7 43.1999C92.1 43.2999 92.4 43.3999 92.6 43.3999C92.8 43.3999 93 43.2999 93.1 43.1999C93.2 43.0999 93.3 42.8999 93.3 42.7999C93.3 42.5999 93.2 42.3999 92.9 42.2999C92.6 42.1999 92.4 41.9999 92 41.9999C91.8 41.9999 91.7 41.9999 91.6 41.9999C91.5 41.9999 91.3 42.0999 91.2 42.0999C91.1 42.1999 90.9 42.1999 90.7 42.2999C90.5 42.3999 90.4 42.4999 90.2 42.5999C90.8 42.8999 91.3 42.9999 91.7 43.1999Z" fill="white"/>
<path d="M96.2 57L99.3 42.7999C99.3 42.5999 99.4 42.4999 99.4 42.2999C99.4 42.0999 99.4 42.1 99.4 42C99.4 41.8 99.4 41.6 99.3 41.5C99.2 41.4 99.1 41.3 98.8 41.2C99.1 40.9 99.4 40.7 99.8 40.5C100.2 40.3 100.5 40.1 100.9 40C101.2 39.9 101.4 39.7999 101.7 39.7999C102 39.6999 102.2 39.7 102.4 39.7C102.9 39.7 103.2 39.7999 103.5 40.0999C103.8 40.2999 103.9 40.6999 103.9 41.0999V41.2C103.9 41.3 103.9 41.3 103.9 41.4C103.9 41.4 103.9 41.4 103.9 41.5V41.5999L102.6 47.5999C103.3 47.1999 103.8 46.7999 104.2 46.5999C104.6 46.3999 104.9 46.2 105.2 46.2C105.4 46.2 105.5 46.0999 105.7 46.0999C105.8 46.0999 106 46.0999 106.2 46.0999C106.9 46.0999 107.5 46.3 108 46.7C108.5 47.1 108.7 47.6 108.7 48.2C108.7 48.3 108.7 48.3999 108.7 48.5999C108.7 48.6999 108.7 48.8 108.7 48.9V49V49.0999L108 52.2C108 52.4 107.9 52.5 107.9 52.7C107.9 52.9 107.9 52.9999 107.9 53.0999C107.9 53.2999 108 53.5 108.1 53.7C108.3 53.9 108.5 53.9 108.7 53.9H108.8H108.9H109H109.1C109.3 53.8 109.4 53.8 109.5 53.7C109.6 53.7 109.7 53.5999 109.8 53.5999C109.9 53.5999 110 53.6 110.1 53.7C110.2 53.8 110.2 53.9 110.2 54C110.2 54.2 110.1 54.3999 109.9 54.5999C109.7 54.7999 109.5 55.1 109.2 55.4C109.1 55.4 109.1 55.5 109.1 55.5L109 55.5999C108.6 55.8999 108.3 56.1 107.9 56.2C107.5 56.4 107.1 56.5 106.7 56.5C106.6 56.5 106.4 56.5999 106.3 56.5999C106.2 56.5999 106 56.5999 105.9 56.5999C105.2 56.5999 104.5 56.4 104.1 56C103.6 55.6 103.4 55.1 103.4 54.4C103.4 54.3 103.4 54.1999 103.4 54.0999C103.4 53.9999 103.4 53.9 103.4 53.7999L104 51C104 50.9 104 50.8 104 50.7C104 50.6 104 50.5 104 50.5C104 50.3 103.9 50.1 103.8 50C103.7 49.9 103.5 49.7999 103.3 49.7999C102.9 49.7999 102.6 49.9999 102.3 50.2999C102.1 50.5999 101.9 51.0999 101.7 51.7999L101.1 54.7999C101 55.2999 100.8 55.7 100.4 56C100.1 56.2999 99.6 56.4 99.1 56.4H98.2C98 56.4 97.9 56.4 97.7 56.4C97.5 56.4 97.4 56.5 97.2 56.5C97.1 56.6 96.9 56.6 96.8 56.7C96.5 56.8 96.3 56.9 96.2 57Z" fill="white"/>
<path d="M120 47.2999C120.8 48.0999 121.2 49.0999 121.2 50.3999C121.2 52.0999 120.6 53.5999 119.4 54.7999C118.2 55.9999 116.7 56.5999 114.9 56.5999C113.6 56.5999 112.6 56.1999 111.8 55.3999C111 54.5999 110.6 53.5999 110.6 52.2999C110.6 50.5999 111.2 49.0999 112.5 47.8999C113.7 46.6999 115.2 46.0999 117 46.0999C118.2 46.0999 119.2 46.4999 120 47.2999ZM115.5 49.2999C115.2 49.6999 115.1 50.0999 115.1 50.4999C115.1 50.7999 115.2 51.0999 115.4 51.2999C115.6 51.4999 115.8 51.5999 116.1 51.5999C116.5 51.5999 116.8 51.3999 117.1 51.0999C117.4 50.7999 117.5 50.2999 117.5 49.7999C117.5 49.4999 117.4 49.1999 117.2 48.9999C117 48.7999 116.8 48.6999 116.5 48.6999C116.1 48.7999 115.7 48.8999 115.5 49.2999Z" fill="white"/>
<path d="M120.5 62.2998L123.9 47.3998C123.9 47.1998 124 47.0998 124 46.8998C124 46.6998 124 46.5998 124 46.5998C124 46.4998 124 46.3998 123.9 46.2998C123.9 46.1998 123.8 46.0998 123.7 45.9998C123.6 45.8998 123.6 45.8998 123.5 45.8998C123.4 45.8998 123.4 45.7998 123.3 45.7998C123.8 45.3998 124.2 45.0998 124.6 44.8998C125 44.6998 125.4 44.4998 125.8 44.3998C126 44.2998 126.1 44.2998 126.3 44.2998C126.5 44.2998 126.6 44.2998 126.8 44.2998C127.3 44.2998 127.7 44.3998 128 44.5998C128.3 44.7998 128.4 45.0998 128.4 45.4998C128.4 45.5998 128.4 45.6998 128.4 45.7998C128.4 45.8998 128.4 45.9998 128.3 46.0998L128.1 47.0998C128.4 46.8998 128.7 46.6998 128.9 46.5998C129.2 46.4998 129.4 46.3998 129.7 46.2998C129.9 46.1998 130 46.1998 130.2 46.1998C130.4 46.1998 130.5 46.1998 130.7 46.1998C131.6 46.1998 132.4 46.4998 133 47.1998C133.6 47.8998 133.9 48.6998 133.9 49.7998C133.9 51.6998 133.4 53.2998 132.4 54.6998C131.4 56.0998 130.2 56.7998 128.8 56.7998C128.3 56.7998 127.9 56.6998 127.5 56.5998C127.1 56.3998 126.8 56.1998 126.4 55.7998C126.3 55.7998 126.3 55.6998 126.3 55.6998C126.3 55.5998 126.2 55.5998 126.2 55.4998L125.2 59.7998C125.1 60.4998 124.8 60.8998 124.5 61.1998C124.2 61.4998 123.7 61.5998 123.2 61.5998H122.1C121.9 61.5998 121.8 61.5998 121.7 61.5998C121.6 61.5998 121.5 61.6998 121.4 61.6998C121.3 61.7998 121.1 61.7998 121 61.9998C120.9 61.9998 120.7 62.0998 120.5 62.2998ZM128.8 48.7998C128.7 48.7998 128.7 48.7998 128.8 48.7998C128.4 48.8998 128.1 49.0998 127.8 49.3998C127.5 49.7998 127.4 50.0998 127.4 50.5998C127.4 50.8998 127.5 51.0998 127.7 51.2998C127.9 51.4998 128.1 51.5998 128.4 51.5998C128.8 51.5998 129.1 51.3998 129.4 50.9998C129.7 50.5998 129.8 50.1998 129.8 49.6998C129.8 49.3998 129.7 49.1998 129.6 48.9998C129.4 48.7998 129.2 48.6998 129 48.6998C128.8 48.7998 128.8 48.7998 128.8 48.7998Z" fill="white"/>
<path d="M143.4 46.6998C144.2 47.0998 144.6 47.6998 144.6 48.2998C144.6 48.5998 144.5 48.8998 144.2 49.1998C143.9 49.4998 143.6 49.5998 143.3 49.5998C143.2 49.5998 143.2 49.5998 143.1 49.5998C143 49.5998 143 49.5998 142.9 49.5998C142.7 49.5998 142.5 49.4998 142.4 49.2998C142.3 49.0998 142 48.9998 141.7 48.7998C141.5 48.5998 141.3 48.3998 141.1 48.2998C140.9 48.1998 140.8 48.1998 140.6 48.1998C140.4 48.1998 140.3 48.1998 140.2 48.2998C140.1 48.3998 140 48.4998 140 48.5998C140 48.6998 140 48.8998 140.1 48.9998C140.2 49.0998 140.3 49.2998 140.5 49.3998C140.5 49.3998 140.6 49.3998 140.7 49.4998C140.8 49.5998 141.1 49.6998 141.7 50.0998C142.4 50.4998 142.9 50.8998 143.2 51.2998C143.5 51.7998 143.7 52.2998 143.7 52.7998C143.7 53.8998 143.2 54.8998 142.2 55.5998C141.2 56.2998 140 56.6998 138.4 56.6998C137.2 56.6998 136.1 56.4998 135.3 55.9998C134.5 55.4998 134.1 54.8998 134.1 54.0998C134.1 53.5998 134.3 53.1998 134.6 52.8998C134.9 52.5998 135.3 52.3998 135.8 52.3998C136 52.3998 136.1 52.3998 136.2 52.3998C136.3 52.3998 136.4 52.4998 136.6 52.4998C136.8 52.5998 137 52.6998 137.2 52.8998C137.4 53.0998 137.7 53.3998 138 53.6998C138.1 53.7998 138.1 53.7998 138.2 53.8998C138.3 53.9998 138.3 53.9998 138.4 54.0998C138.6 54.1998 138.7 54.2998 138.9 54.3998C139.1 54.4998 139.2 54.4998 139.3 54.4998C139.4 54.4998 139.6 54.3998 139.7 54.2998C139.8 54.1998 139.9 54.0998 139.9 53.8998C139.9 53.7998 139.9 53.7998 139.9 53.7998V53.6998C139.8 53.5998 139.7 53.4998 139.5 53.2998C139.3 53.0998 138.9 52.8998 138.4 52.4998C137.9 52.1998 137.5 51.8998 137.2 51.6998C136.9 51.4998 136.6 51.1998 136.5 50.9998C136.3 50.7998 136.2 50.4998 136.2 50.2998C136.1 50.0998 136.1 49.7998 136.1 49.4998C136.1 48.5998 136.5 47.7998 137.4 47.1998C138.3 46.5998 139.2 46.1998 140.4 46.1998C141.6 46.0998 142.6 46.2998 143.4 46.6998Z" fill="white"/>
<path d="M33.7 37.1C45.9 40.9 54.8 40.8 60.7 39.7C56.5 35.4 48.5 30.7 33.2 29.1C16.5 27.4 8.90002 33.6 5.40002 39.5C11.1 35.8 20.3 32.9 33.7 37.1Z" fill="white"/>
<path d="M0 49.4C0 49.4 10.2 33.2 34.1 41.3C58 49.4 68.7 41.3 68.7 41.3C68.7 41.3 70.4 66 37.1 66C3.8 66 0 49.4 0 49.4Z" fill="white"/>
<path d="M45.7001 0C38.5001 4.5 36.6001 17.5 36.6001 17.5L37.7001 18C40.1001 6.7 51.2001 0.8 51.2001 0.8L45.7001 0Z" fill="white"/>
<path d="M52.2001 30.7C52.2001 30.2 52.3 29.7999 52.3 29.2999C52.3 19.9 44.7001 12.2 35.2001 12.2C27.3001 12.2 20.7 17.5 18.8 24.8C27.2 23.8 41.4001 23.5 52.2001 30.7Z" fill="white"/>
<path opacity="0.1" d="M52.3 29.3C52.3 24.1 50 19.4 46.3 16.3C42.4 19.3 34.5 23.2001 21.2 19.7001C20.2 21.2001 19.4 22.9 18.9 24.8C27.3 23.8 41.6 23.5001 52.3 30.7001C52.2 30.3001 52.3 29.8 52.3 29.3Z" fill="#414042"/>
<path opacity="0.3" d="M36.8001 15.5C37.2001 17.1 34.5001 18 31.6001 18.6C28.8001 19.3 26.9001 19.5 26.5001 17.9C26.1001 16.3 28.1001 14.5 30.9001 13.8C33.8001 13.2 36.4001 14 36.8001 15.5Z" fill="white"/>
<path opacity="0.1" d="M54.1 44.9C44.7 49.6 26.2 55.6 0.9 48.2C0.3 48.9 0 49.4 0 49.4C0 49.4 3.8 66 37.1 66C70.4 66 68.7 41.2 68.7 41.2C68.7 41.2 64.1 44.8 54.1 44.9Z" fill="#414042"/>
<path opacity="0.3" d="M27.8 44.8999C27.7 46.9999 24.5 47.2999 21.1 47.1999C17.7 47.0999 15.6 46.7999 15.7 44.5999C15.8 42.4999 18.5 40.7999 21.9 40.8999C25.2 40.8999 27.9 42.6999 27.8 44.8999Z" fill="white"/>
</g>
<defs>
<clipPath id="clip0_34_86">
<rect width="150.5" height="66" fill="white"/>
</clipPath>
</defs>
</svg>
